<?xml version="1.0" encoding="utf-8"?>
<!-- Generator: Adobe Illustrator 24.3.0, SVG Export Plug-In . SVG Version: 6.00 Build 0)  -->
<svg version="1.1" id="Layer_1" xmlns="http://www.w3.org/2000/svg" xmlns:xlink="http://www.w3.org/1999/xlink" x="0px" y="0px"
	 viewBox="0 0 327 327" style="enable-background:new 0 0 327 327;" xml:space="preserve">
<style type="text/css">
	.st0{fill:#0DB14B;}
</style>
<g>
	<path class="st0" d="M163.1,15c64.3,0.1,119.7,38.4,141.7,99c14.2,39,12.1,77.9-5.6,115.6c-13.5,28.8-34.4,51-61.9,66.6
		c-19.3,11-40.2,17.4-62.6,18.9c-35.8,2.5-68.3-6.4-97.6-26.9c-2.9-2-4.3-0.9-6.3,1c-7.2,7.2-14.3,14.5-21.9,21.2
		c-8.8,7.8-22.1,7-29.9-1.3c-8.3-8.8-8.5-22-0.2-30.7c6.6-6.9,13.3-13.6,20.1-20.2c2.7-2.6,2.8-4.4,0.7-7.6
		c-29.4-44.2-35.8-91.9-16-140.9c22-54.3,63.6-85.7,122-94c2.1-0.3,4.3-0.7,6.4-0.8C155.8,14.9,159.5,15,163.1,15z M163.3,54
		C101.9,54,52.1,103.6,52,164.6c0,62.1,49.7,112.2,111.4,112.2c61,0,111.4-50.3,111.4-111.4C274.9,103.7,225.1,53.9,163.3,54z"/>
	<path class="st0" d="M130.3,185.4c0-3-1.1-5.6-3.2-7.8c-2.2-2.2-4.8-3.2-7.8-3.2s-5.6,1.1-7.8,3.2c-2.2,2.2-3.2,4.8-3.2,7.8
		c0,3,1.1,5.6,3.2,7.8c2.2,2.2,4.8,3.2,7.8,3.2s5.6-1.1,7.8-3.2C129.2,191,130.3,188.4,130.3,185.4z M218.5,185.4
		c0-3-1.1-5.6-3.2-7.8s-4.8-3.2-7.8-3.2c-3,0-5.6,1.1-7.8,3.2c-2.2,2.2-3.2,4.8-3.2,7.8c0,3,1.1,5.6,3.2,7.8
		c2.2,2.2,4.8,3.2,7.8,3.2c3,0,5.6-1.1,7.8-3.2C217.5,191,218.5,188.4,218.5,185.4z M214.6,151.3l-6.2-33.1
		c-0.3-1.3-0.9-2.4-1.9-3.2c-1-0.8-2.2-1.2-3.5-1.2h-79.1c-1.3,0-2.5,0.4-3.5,1.2c-1,0.8-1.7,1.9-1.9,3.2l-6.2,33.1
		c-0.3,1.7,0.1,3.2,1.2,4.6s2.5,2,4.2,2h91.5c1.7,0,3.1-0.7,4.2-2C214.5,154.5,214.9,153,214.6,151.3z M195.1,98.5
		c0-1.1-0.4-2.1-1.2-2.9s-1.8-1.2-2.9-1.2h-55.1c-1.1,0-2.1,0.4-2.9,1.2c-0.8,0.8-1.2,1.8-1.2,2.9s0.4,2.1,1.2,2.9
		c0.8,0.8,1.8,1.2,2.9,1.2H191c1.1,0,2.1-0.4,2.9-1.2S195.1,99.7,195.1,98.5z M229.6,161v51.9h-11v11c0,3-1.1,5.6-3.2,7.8
		c-2.2,2.2-4.8,3.2-7.8,3.2c-3,0-5.6-1.1-7.8-3.2c-2.2-2.2-3.2-4.8-3.2-7.8v-11h-66.2v11c0,3-1.1,5.6-3.2,7.8
		c-2.2,2.2-4.8,3.2-7.8,3.2s-5.6-1.1-7.8-3.2c-2.2-2.2-3.2-4.8-3.2-7.8v-11h-11V161c0-6.4,0.7-12.8,2.2-19.2l8.9-39.1
		c0.5-4.5,3.3-8.4,8.4-11.8c5.1-3.4,11.7-5.9,19.8-7.7s17.1-2.6,26.9-2.6c9.8,0,18.8,0.9,26.9,2.6c8.1,1.7,14.7,4.3,19.8,7.7
		c5.1,3.4,7.9,7.3,8.4,11.8l9,39.1C228.9,147.6,229.6,154.1,229.6,161z"/>
</g>
</svg>
